<?xml version="1.0" standalone="no"?>
<!DOCTYPE svg PUBLIC "-//W3C//DTD SVG 1.1//EN" "http://www.w3.org/Graphics/SVG/1.1/DTD/svg11.dtd" >
<svg xmlns="http://www.w3.org/2000/svg">
<metadata>
This is a custom SVG webfont generated by Font Squirrel.
Copyright   :  2010 Domenico Mazza Do not redistribute or modify any components of this font
Designer    : Domenico Mazza
Foundry     : Domenico Mazza
</metadata>
<defs>
<font id="Pic0Regular" horiz-adv-x="896" >
<font-face units-per-em="2048" ascent="1638" descent="-410" />
<missing-glyph horiz-adv-x="384" />
<glyph unicode=" "  horiz-adv-x="384" />
<glyph unicode="&#x09;" horiz-adv-x="384" />
<glyph unicode="&#xa0;" horiz-adv-x="384" />
<glyph unicode="!" horiz-adv-x="512" d="M128 0v256h256v-256h-256zM128 384v896h256v-896h-256z" />
<glyph unicode="&#x22;" horiz-adv-x="512" d="M0 1024v384h128v-384h-128zM256 1024v384h128v-384h-128z" />
<glyph unicode="#" d="M0 256v128h128v256h-128v128h128v256h128v-256h256v256h128v-256h128v-128h-128v-256h128v-128h-128v-256h-128v256h-256v-256h-128v256h-128zM256 384h256v256h-256v-256z" />
<glyph unicode="$" d="M0 128v256h256v-128h256v256h-384v128h-128v512h128v128h128v256h256v-256h128v-128h128v-256h-256v128h-256v-256h384v-128h128v-512h-128v-128h-128v-256h-256v256h-128v128h-128z" />
<glyph unicode="%" horiz-adv-x="1408" d="M0 896v256h128v-256h-128zM128 768v128h256v-128h-256zM128 1152v128h256v-128h-256zM256 0v256h128v256h128v256h128v256h128v256h256v-256h-128v-256h-128v-256h-128v-256h-128v-256h-256zM384 896v256h128v-256h-128zM768 128v256h128v-256h-128zM896 0v128h256v-128 h-256zM896 384v128h256v-128h-256zM1152 128v256h128v-256h-128z" />
<glyph unicode="&#x26;" horiz-adv-x="1152" d="M0 128v384h128v256h-128v384h128v128h512v-128h128v-384h-128v-256h128v-128h128v128h128v-256h-128v-128h128v-128h-256v128h-128v-128h-512v128h-128zM256 256h256v256h-256v-256zM256 768h256v256h-256v-256z" />
<glyph unicode="'" horiz-adv-x="256" d="M0 1024v384h128v-384h-128z" />
<glyph unicode="(" horiz-adv-x="640" d="M0 256v768h128v256h128v128h256v-128h-128v-256h-128v-768h128v-256h128v-128h-256v128h-128v256h-128z" />
<glyph unicode=")" horiz-adv-x="640" d="M0 0h128v256h128v768h-128v256h-128v128h256v-128h128v-256h128v-768h-128v-256h-128v-128h-256v128z" />
<glyph unicode="*" horiz-adv-x="1024" d="M0 896v128h256v128h128v256h128v-256h128v-128h256v-128h-256v-128h-128v-256h-128v256h-128v128h-256zM128 640v128h128v-128h-128zM128 1152v128h128v-128h-128zM640 640v128h128v-128h-128zM640 1152v128h128v-128h-128z" />
<glyph unicode="+" horiz-adv-x="768" d="M0 512v128h256v256h128v-256h256v-128h-256v-256h-128v256h-256z" />
<glyph unicode="," horiz-adv-x="384" d="M0 0v256h256v-384h-128v128h-128zM0 -128h128v-128h-128v128z" />
<glyph unicode="-" d="M128 512v128h640v-128h-640z" />
<glyph unicode="." horiz-adv-x="384" d="M0 0v256h256v-256h-256z" />
<glyph unicode="/" d="M0 0v256h128v256h128v256h128v256h128v256h256v-256h-128v-256h-128v-256h-128v-256h-128v-256h-256z" />
<glyph unicode="0" d="M0 128v1024h128v128h512v-128h128v-1024h-128v-128h-512v128h-128zM256 256h256v384h-128v128h128v256h-256v-384h128v-128h-128v-256z" />
<glyph unicode="1" horiz-adv-x="640" d="M0 1024v128h128v128h384v-1280h-256v1024h-256z" />
<glyph unicode="2" d="M0 0v384h128v128h128v128h128v128h128v256h-256v-128h-256v256h128v128h512v-128h128v-512h-128v-128h-128v-128h-128v-128h384v-256h-768z" />
<glyph unicode="3" d="M0 128v256h256v-128h256v256h-256v256h256v256h-256v-128h-256v256h128v128h512v-128h128v-384h-128v-256h128v-384h-128v-128h-512v128h-128z" />
<glyph unicode="4" d="M0 384v640h128v128h128v128h384v-640h128v-256h-128v-384h-256v384h-384zM256 640h128v256h-128v-256z" />
<glyph unicode="5" d="M0 0v256h512v256h-512v768h768v-256h-512v-256h384v-128h128v-512h-128v-128h-640z" />
<glyph unicode="6" d="M0 128v1024h128v128h512v-128h128v-256h-256v128h-256v-256h384v-128h128v-512h-128v-128h-512v128h-128zM256 256h256v256h-256v-256z" />
<glyph unicode="7" d="M0 1024v256h768v-512h-128v-256h-128v-256h-128v-256h-256v256h128v256h128v256h128v256h-512z" />
<glyph unicode="8" d="M0 128v512h128v128h-128v384h128v128h512v-128h128v-384h-128v-128h128v-512h-128v-128h-512v128h-128zM256 256h256v256h-256v-256zM256 768h256v256h-256v-256z" />
<glyph unicode="9" d="M0 128v256h256v-128h256v256h-384v128h-128v512h128v128h512v-128h128v-1024h-128v-128h-512v128h-128zM256 768h256v256h-256v-256z" />
<glyph unicode=":" horiz-adv-x="384" d="M0 0v256h256v-256h-256zM0 512v256h256v-256h-256z" />
<glyph unicode=";" horiz-adv-x="384" d="M0 0v256h256v-384h-128v128h-128zM0 -128h128v-128h-128v128zM0 512v256h256v-256h-256z" />
<glyph unicode="&#x3c;" horiz-adv-x="768" d="M0 512v128h128v128h128v128h128v128h256v-128h-128v-128h-128v-128h-128v-128h128v-128h128v-128h128v-128h-256v128h-128v128h-128v128h-128z" />
<glyph unicode="=" horiz-adv-x="768" d="M0 384v128h640v-128h-640zM0 640v128h640v-128h-640z" />
<glyph unicode="&#x3e;" horiz-adv-x="768" d="M0 128v128h128v128h128v128h128v128h-128v128h-128v128h-128v128h256v-128h128v-128h128v-128h128v-128h-128v-128h-128v-128h-128v-128h-256z" />
<glyph unicode="?" horiz-adv-x="768" d="M0 1024v256h512v-128h128v-384h-128v-128h-128v-256h-256v384h128v128h128v128h-384zM128 0v256h256v-256h-256z" />
<glyph unicode="@" horiz-adv-x="1664" d="M0 0v1024h128v128h128v128h1024v-128h128v-128h128v-768h-128v-128h-256v128h-128v-128h-512v128h-128v512h128v128h512v-128h128v-384h128v512h-128v128h-768v-128h-128v-768h128v-128h1024v128h128v-256h-128v-128h-1152v128h-128v128h-128zM640 384h256v256h-256v-256 z" />
<glyph unicode="A" d="M0 0v1152h128v128h512v-128h128v-1152h-256v512h-256v-512h-256zM256 768h256v256h-256v-256z" />
<glyph unicode="B" d="M0 0v1280h640v-128h128v-1024h-128v-128h-640zM256 256h256v256h-256v-256zM256 768h256v256h-256v-256z" />
<glyph unicode="C" d="M0 128v1024h128v128h640v-256h-512v-768h512v-256h-640v128h-128z" />
<glyph unicode="D" d="M0 0v1280h640v-128h128v-1024h-128v-128h-640zM256 256h256v768h-256v-768z" />
<glyph unicode="E" d="M0 0v1280h768v-256h-512v-256h512v-256h-512v-256h512v-256h-768z" />
<glyph unicode="F" d="M0 0v1280h768v-256h-512v-256h512v-256h-512v-512h-256z" />
<glyph unicode="G" d="M0 128v1024h128v128h512v-128h128v-256h-256v128h-256v-768h256v128h-128v256h384v-640h-640v128h-128z" />
<glyph unicode="H" d="M0 0v1280h256v-512h256v512h256v-1280h-256v512h-256v-512h-256z" />
<glyph unicode="I" horiz-adv-x="384" d="M0 0v1280h256v-1280h-256z" />
<glyph unicode="J" d="M0 0v256h512v1024h256v-1152h-128v-128h-640z" />
<glyph unicode="K" d="M0 0v1280h256v-256h128v128h128v128h256v-256h-128v-128h-128v-128h-128v-256h128v-128h128v-128h128v-256h-256v128h-128v128h-128v-256h-256z" />
<glyph unicode="L" d="M0 0v1280h256v-1024h512v-256h-768z" />
<glyph unicode="M" horiz-adv-x="1152" d="M0 0v1280h256v-128h128v-128h256v128h128v128h256v-1280h-256v768h-128v-128h-256v128h-128v-768h-256z" />
<glyph unicode="N" horiz-adv-x="1024" d="M0 0v1280h256v-256h128v-128h128v-128h128v512h256v-1280h-256v384h-128v128h-128v128h-128v-640h-256z" />
<glyph unicode="O" d="M0 128v1024h128v128h512v-128h128v-1024h-128v-128h-512v128h-128zM256 256h256v768h-256v-768z" />
<glyph unicode="P" d="M0 0v1280h640v-128h128v-512h-128v-128h-384v-512h-256zM256 768h256v256h-256v-256z" />
<glyph unicode="Q" d="M0 128v1024h128v128h512v-128h128v-1152h-640v128h-128zM256 256h128v128h128v640h-256v-768z" />
<glyph unicode="R" d="M0 0v1280h640v-128h128v-512h-128v-128h-128v-128h128v-128h128v-256h-256v128h-128v128h-128v-256h-256zM256 768h256v256h-256v-256z" />
<glyph unicode="S" d="M0 0v256h512v256h-384v128h-128v512h128v128h640v-256h-512v-256h384v-128h128v-512h-128v-128h-640z" />
<glyph unicode="T" d="M0 1024v256h768v-256h-256v-1024h-256v1024h-256z" />
<glyph unicode="U" d="M0 128v1152h256v-1024h256v1024h256v-1152h-128v-128h-512v128h-128z" />
<glyph unicode="V" d="M0 256v1024h256v-896h256v896h256v-1024h-128v-128h-128v-128h-256v128h-128v128h-128z" />
<glyph unicode="W" horiz-adv-x="1280" d="M0 128v1152h256v-896h128v128h128v128h128v-128h128v-128h128v896h256v-1152h-128v-128h-256v128h-128v128h-128v-128h-128v-128h-256v128h-128z" />
<glyph unicode="X" d="M0 0v384h128v128h128v256h-128v128h-128v384h256v-384h256v384h256v-384h-128v-128h-128v-256h128v-128h128v-384h-256v384h-256v-384h-256z" />
<glyph unicode="Y" d="M0 640v640h256v-512h256v512h256v-640h-128v-128h-128v-512h-256v512h-128v128h-128z" />
<glyph unicode="Z" d="M0 0v512h128v128h128v128h128v128h128v128h-512v256h768v-512h-128v-128h-128v-128h-128v-128h-128v-128h512v-256h-768z" />
<glyph unicode="[" horiz-adv-x="512" d="M0 -256v1664h384v-256h-128v-1152h128v-256h-384z" />
<glyph unicode="\" d="M0 1024v256h256v-256h128v-256h128v-256h128v-256h128v-256h-256v256h-128v256h-128v256h-128v256h-128z" />
<glyph unicode="]" horiz-adv-x="512" d="M0 0h128v1152h-128v256h384v-1664h-384v256z" />
<glyph unicode="^" d="M0 768v256h128v128h128v128h256v-128h128v-128h128v-256h-128v128h-128v128h-256v-128h-128v-128h-128z" />
<glyph unicode="_" horiz-adv-x="1024" d="M0 0h896v-128h-896v128z" />
<glyph unicode="`" horiz-adv-x="768" d="M0 1408v128h256v-128h128v-128h128v-128h-256v128h-128v128h-128z" />
<glyph unicode="a" d="M0 128v384h128v128h384v128h-384v-128h-128v256h128v128h512v-128h128v-896h-640v128h-128zM256 256h256v128h-256v-128z" />
<glyph unicode="b" d="M0 128v1152h256v-256h384v-128h128v-768h-128v-128h-512v128h-128zM256 256h256v512h-256v-512z" />
<glyph unicode="c" d="M0 128v768h128v128h512v-128h128v-256h-256v128h-256v-512h256v128h256v-256h-128v-128h-512v128h-128z" />
<glyph unicode="d" d="M0 128v768h128v128h384v256h256v-1152h-128v-128h-512v128h-128zM256 256h256v512h-256v-512z" />
<glyph unicode="e" d="M0 128v768h128v128h512v-128h128v-384h-128v-128h-384v-128h512v-256h-640v128h-128zM256 640h256v128h-256v-128z" />
<glyph unicode="f" d="M0 -256v1152h128v128h640v-256h-512v-256h384v-256h-384v-512h-256z" />
<glyph unicode="g" d="M0 128v768h128v128h512v-128h128v-1280h-128v-128h-640v256h512v256h-384v128h-128zM256 256h256v512h-256v-512z" />
<glyph unicode="h" d="M0 0v1408h256v-384h384v-128h128v-896h-256v768h-256v-768h-256z" />
<glyph unicode="i" horiz-adv-x="384" d="M0 0v1024h256v-1024h-256zM0 1152v128h256v-128h-256z" />
<glyph unicode="j" horiz-adv-x="768" d="M0 -256h384v1280h256v-1408h-128v-128h-512v256zM384 1152v128h256v-128h-256z" />
<glyph unicode="k" d="M0 0v1280h256v-512h128v128h128v128h256v-256h-128v-128h-128v-256h128v-128h128v-256h-256v128h-128v128h-128v-256h-256z" />
<glyph unicode="l" horiz-adv-x="512" d="M0 128v1152h256v-1024h128v-256h-256v128h-128z" />
<glyph unicode="m" horiz-adv-x="1408" d="M0 0v1024h1152v-128h128v-896h-256v768h-256v-768h-256v768h-256v-768h-256z" />
<glyph unicode="n" d="M0 0v1024h640v-128h128v-896h-256v768h-256v-768h-256z" />
<glyph unicode="o" d="M0 128v768h128v128h512v-128h128v-768h-128v-128h-512v128h-128zM256 256h256v512h-256v-512z" />
<glyph unicode="p" d="M0 -512v1408h128v128h512v-128h128v-768h-128v-128h-384v-512h-256zM256 256h256v512h-256v-512z" />
<glyph unicode="q" d="M0 128v768h128v128h512v-128h128v-1408h-256v512h-384v128h-128zM256 256h256v512h-256v-512z" />
<glyph unicode="r" d="M0 0v896h128v128h640v-256h-512v-768h-256z" />
<glyph unicode="s" d="M0 0v256h512v128h-384v128h-128v384h128v128h640v-256h-512v-128h384v-128h128v-384h-128v-128h-640z" />
<glyph unicode="t" horiz-adv-x="768" d="M0 768v256h128v128h256v-128h256v-256h-256v-512h256v-256h-384v128h-128v640h-128z" />
<glyph unicode="u" d="M0 128v896h256v-768h256v768h256v-896h-128v-128h-512v128h-128z" />
<glyph unicode="v" d="M0 256v768h256v-640h256v640h256v-768h-128v-128h-128v-128h-256v128h-128v128h-128z" />
<glyph unicode="w" horiz-adv-x="1024" d="M0 128v896h256v-640h128v256h128v-256h128v640h256v-896h-128v-128h-256v128h-128v-128h-256v128h-128z" />
<glyph unicode="x" d="M0 0v384h128v256h-128v384h256v-384h256v384h256v-384h-128v-256h128v-384h-256v384h-256v-384h-256z" />
<glyph unicode="y" d="M0 128v896h256v-768h256v768h256v-1408h-128v-128h-640v256h512v256h-384v128h-128z" />
<glyph unicode="z" d="M0 0v384h128v128h128v128h128v128h-384v256h768v-384h-128v-128h-128v-128h-128v-128h384v-256h-768z" />
<glyph unicode="{" horiz-adv-x="640" d="M0 512v128h128v640h128v128h256v-256h-128v-512h-128v-128h128v-512h128v-256h-256v128h-128v640h-128z" />
<glyph unicode="|" horiz-adv-x="384" d="M0 -256v1664h256v-1664h-256z" />
<glyph unicode="}" horiz-adv-x="640" d="M0 0h128v512h128v128h-128v512h-128v256h256v-128h128v-640h128v-128h-128v-640h-128v-128h-256v256z" />
<glyph unicode="~" horiz-adv-x="1024" d="M0 384v256h128v128h384v-256h128v128h128v128h128v-256h-128v-128h-384v256h-128v-128h-128v-128h-128z" />
<glyph unicode="&#xa2;" d="M0 256v512h128v128h256v128h256v-128h128v-256h-128v-256h128v-256h-128v-128h-256v128h-256v128h-128zM256 384h128v256h-128v-256z" />
<glyph unicode="&#xa3;" horiz-adv-x="1024" d="M0 0v256h128v256h-128v256h128v384h128v128h512v-128h128v-128h-512v-256h256v-256h-256v-128h128v-128h384v-256h-896z" />
<glyph unicode="&#xa4;" horiz-adv-x="1152" d="M0 128v256h128v512h-128v256h256v-128h512v128h256v-256h-128v-512h128v-256h-256v128h-512v-128h-256zM384 512h256v256h-256v-256z" />
<glyph unicode="&#xa5;" d="M0 256v128h256v128h-256v128h256v128h-128v128h-128v384h256v-384h256v384h256v-384h-128v-128h-128v-128h256v-128h-256v-128h256v-128h-256v-256h-256v256h-256z" />
<glyph unicode="&#xaa;" d="M0 128v384h128v128h384v128h-384v-128h-128v256h128v128h512v-128h128v-896h-640v128h-128zM256 256h256v128h-256v-128z" />
<glyph unicode="&#xab;" d="M0 512v128h128v-128h-128zM128 384v128h128v-128h-128zM128 640v128h128v-128h-128zM256 256v128h128v-128h-128zM256 768v128h128v-128h-128zM384 512v128h128v-128h-128zM512 384v128h128v-128h-128zM512 640v128h128v-128h-128zM640 256v128h128v-128h-128zM640 768 v128h128v-128h-128z" />
<glyph unicode="&#xad;" d="M128 512v128h640v-128h-640z" />
<glyph unicode="&#xb0;" horiz-adv-x="640" d="M0 896v256h128v-256h-128zM128 768v128h256v-128h-256zM128 1152v128h256v-128h-256zM384 896v256h128v-256h-128z" />
<glyph unicode="&#xb1;" horiz-adv-x="768" d="M0 0v128h640v-128h-640zM0 512v128h256v256h128v-256h256v-128h-256v-256h-128v256h-256z" />
<glyph unicode="&#xb2;" horiz-adv-x="640" d="M0 640v128h128v128h128v-128h256v-128h-512zM0 1024v128h128v-128h-128zM128 1152v128h256v-128h-256zM256 896v128h128v-128h-128zM384 1024v128h128v-128h-128z" />
<glyph unicode="&#xb3;" horiz-adv-x="640" d="M0 640v128h384v-128h-384zM0 1152v128h384v-128h-384zM128 896v128h256v-128h-256zM384 768v128h128v-128h-128zM384 1024v128h128v-128h-128z" />
<glyph unicode="&#xb6;" horiz-adv-x="1280" d="M0 640v512h128v128h1024v-256h-128v-1024h-256v1024h-128v-1024h-256v512h-256v128h-128z" />
<glyph unicode="&#xb7;" horiz-adv-x="256" d="M0 512v128h128v-128h-128z" />
<glyph unicode="&#xb9;" horiz-adv-x="512" d="M0 640v128h128v256h-128v128h128v128h128v-512h128v-128h-384z" />
<glyph unicode="&#xba;" horiz-adv-x="640" d="M0 768v384h128v-384h-128zM128 640v128h256v-128h-256zM128 1152v128h256v-128h-256zM384 768v384h128v-384h-128z" />
<glyph unicode="&#xbb;" d="M0 256v128h128v-128h-128zM0 768v128h128v-128h-128zM128 384v128h128v-128h-128zM128 640v128h128v-128h-128zM256 512v128h128v-128h-128zM384 256v128h128v-128h-128zM384 768v128h128v-128h-128zM512 384v128h128v-128h-128zM512 640v128h128v-128h-128zM640 512v128 h128v-128h-128z" />
<glyph unicode="&#xbc;" horiz-adv-x="1280" d="M0 128v128h128v128h128v128h128v128h128v128h128v128h128v128h128v128h256v-128h-128v-128h-128v-128h-128v-128h-128v-128h-128v-128h-128v-128h-128v-128h-256zM0 640v128h128v256h-128v128h128v128h128v-512h128v-128h-384zM640 128v256h128v-128h128v128h-128v128 h128v128h128v-384h128v-128h-128v-128h-128v128h-256z" />
<glyph unicode="&#xbd;" horiz-adv-x="1280" d="M0 128v128h128v128h128v128h128v128h128v128h128v128h128v128h128v128h256v-128h-128v-128h-128v-128h-128v-128h-128v-128h-128v-128h-128v-128h-128v-128h-256zM0 640v128h128v256h-128v128h128v128h128v-512h128v-128h-384zM640 0v128h128v128h128v-128h256v-128h-512 zM640 384v128h128v-128h-128zM768 512v128h256v-128h-256zM896 256v128h128v-128h-128zM1024 384v128h128v-128h-128z" />
<glyph unicode="&#xbe;" horiz-adv-x="1280" d="M0 128v128h128v128h128v128h128v128h128v128h128v128h128v128h128v128h256v-128h-128v-128h-128v-128h-128v-128h-128v-128h-128v-128h-128v-128h-128v-128h-256zM0 640v128h384v-128h-384zM0 1152v128h384v-128h-384zM128 896v128h256v-128h-256zM384 768v128h128v-128 h-128zM384 1024v128h128v-128h-128zM640 128v256h128v-128h128v128h-128v128h128v128h128v-384h128v-128h-128v-128h-128v128h-256z" />
<glyph unicode="&#xc0;" d="M0 1658v128h256v-128h128v-128h128v-128h-256v128h-128v128h-128zM0 0v1152h128v128h512v-128h128v-1152h-256v512h-256v-512h-256zM256 768h256v256h-256v-256z" />
<glyph unicode="&#xc2;" d="M0 1402v256h128v128h128v128h256v-128h128v-128h128v-256h-128v128h-128v128h-256v-128h-128v-128h-128zM0 0v1152h128v128h512v-128h128v-1152h-256v512h-256v-512h-256zM256 768h256v256h-256v-256z" />
<glyph unicode="&#xc3;" d="M-64 1402v256h128v128h384v-256h128v128h128v128h128v-256h-128v-128h-384v256h-128v-128h-128v-128h-128zM0 0v1152h128v128h512v-128h128v-1152h-256v512h-256v-512h-256zM256 768h256v256h-256v-256z" />
<glyph unicode="&#xc5;" d="M128 1390v256h128v-256h-128zM256 1262v128h256v-128h-256zM256 1646v128h256v-128h-256zM512 1390v256h128v-256h-128zM0 0v1152h128v128h512v-128h128v-1152h-256v512h-256v-512h-256zM256 768h256v256h-256v-256z" />
<glyph unicode="&#xc8;" d="M0 1658v128h256v-128h128v-128h128v-128h-256v128h-128v128h-128zM0 0v1280h768v-256h-512v-256h512v-256h-512v-256h512v-256h-768z" />
<glyph unicode="&#xca;" d="M0 1402v256h128v128h128v128h256v-128h128v-128h128v-256h-128v128h-128v128h-256v-128h-128v-128h-128zM0 0v1280h768v-256h-512v-256h512v-256h-512v-256h512v-256h-768z" />
<glyph unicode="&#xcc;" horiz-adv-x="384" d="M-256 1658v128h256v-128h128v-128h128v-128h-256v128h-128v128h-128zM0 0v1280h256v-1280h-256z" />
<glyph unicode="&#xce;" horiz-adv-x="384" d="M-256 1402v256h128v128h128v128h256v-128h128v-128h128v-256h-128v128h-128v128h-256v-128h-128v-128h-128zM0 0v1280h256v-1280h-256z" />
<glyph unicode="&#xd1;" horiz-adv-x="1024" d="M0 1402v256h128v128h384v-256h128v128h128v128h128v-256h-128v-128h-384v256h-128v-128h-128v-128h-128zM0 0v1280h256v-256h128v-128h128v-128h128v512h256v-1280h-256v384h-128v128h-128v128h-128v-640h-256z" />
<glyph unicode="&#xd2;" d="M0 1658v128h256v-128h128v-128h128v-128h-256v128h-128v128h-128zM0 128v1024h128v128h512v-128h128v-1024h-128v-128h-512v128h-128zM256 256h256v768h-256v-768z" />
<glyph unicode="&#xd4;" d="M0 1402v256h128v128h128v128h256v-128h128v-128h128v-256h-128v128h-128v128h-256v-128h-128v-128h-128zM0 128v1024h128v128h512v-128h128v-1024h-128v-128h-512v128h-128zM256 256h256v768h-256v-768z" />
<glyph unicode="&#xd5;" d="M-64 1402v256h128v128h384v-256h128v128h128v128h128v-256h-128v-128h-384v256h-128v-128h-128v-128h-128zM0 128v1024h128v128h512v-128h128v-1024h-128v-128h-512v128h-128zM256 256h256v768h-256v-768z" />
<glyph unicode="&#xd7;" horiz-adv-x="768" d="M0 256v128h128v-128h-128zM0 768v128h128v-128h-128zM128 384v128h128v-128h-128zM128 640v128h128v-128h-128zM256 512v128h128v-128h-128zM384 384v128h128v-128h-128zM384 640v128h128v-128h-128zM512 256v128h128v-128h-128zM512 768v128h128v-128h-128z" />
<glyph unicode="&#xd9;" d="M0 1658v128h256v-128h128v-128h128v-128h-256v128h-128v128h-128zM0 128v1152h256v-1024h256v1024h256v-1152h-128v-128h-512v128h-128z" />
<glyph unicode="&#xdb;" d="M0 1402v256h128v128h128v128h256v-128h128v-128h128v-256h-128v128h-128v128h-256v-128h-128v-128h-128zM0 128v1152h256v-1024h256v1024h256v-1152h-128v-128h-512v128h-128z" />
<glyph unicode="&#xe0;" d="M0 1402v128h256v-128h128v-128h128v-128h-256v128h-128v128h-128zM0 128v384h128v128h384v128h-384v-128h-128v256h128v128h512v-128h128v-896h-640v128h-128zM256 256h256v128h-256v-128z" />
<glyph unicode="&#xe2;" d="M0 1146v256h128v128h128v128h256v-128h128v-128h128v-256h-128v128h-128v128h-256v-128h-128v-128h-128zM0 128v384h128v128h384v128h-384v-128h-128v256h128v128h512v-128h128v-896h-640v128h-128zM256 256h256v128h-256v-128z" />
<glyph unicode="&#xe3;" d="M-64 1146v256h128v128h384v-256h128v128h128v128h128v-256h-128v-128h-384v256h-128v-128h-128v-128h-128zM0 128v384h128v128h384v128h-384v-128h-128v256h128v128h512v-128h128v-896h-640v128h-128zM256 256h256v128h-256v-128z" />
<glyph unicode="&#xe5;" d="M128 1274v256h128v-256h-128zM256 1146v128h256v-128h-256zM256 1530v128h256v-128h-256zM512 1274v256h128v-256h-128zM0 128v384h128v128h384v128h-384v-128h-128v256h128v128h512v-128h128v-896h-640v128h-128zM256 256h256v128h-256v-128z" />
<glyph unicode="&#xe8;" d="M0 1402v128h256v-128h128v-128h128v-128h-256v128h-128v128h-128zM0 128v768h128v128h512v-128h128v-384h-128v-128h-384v-128h512v-256h-640v128h-128zM256 640h256v128h-256v-128z" />
<glyph unicode="&#xea;" d="M0 1146v256h128v128h128v128h256v-128h128v-128h128v-256h-128v128h-128v128h-256v-128h-128v-128h-128zM0 128v768h128v128h512v-128h128v-384h-128v-128h-384v-128h512v-256h-640v128h-128zM256 640h256v128h-256v-128z" />
<glyph unicode="&#xec;" horiz-adv-x="384" d="M-256 1658v128h256v-128h128v-128h128v-128h-256v128h-128v128h-128zM0 0v1024h256v-1024h-256zM0 1152v128h256v-128h-256z" />
<glyph unicode="&#xee;" horiz-adv-x="384" d="M-256 1402v256h128v128h128v128h256v-128h128v-128h128v-256h-128v128h-128v128h-256v-128h-128v-128h-128zM0 0v1024h256v-1024h-256zM0 1152v128h256v-128h-256z" />
<glyph unicode="&#xf1;" d="M-64 1146v256h128v128h384v-256h128v128h128v128h128v-256h-128v-128h-384v256h-128v-128h-128v-128h-128zM0 0v1024h640v-128h128v-896h-256v768h-256v-768h-256z" />
<glyph unicode="&#xf2;" d="M0 1402v128h256v-128h128v-128h128v-128h-256v128h-128v128h-128zM0 128v768h128v128h512v-128h128v-768h-128v-128h-512v128h-128zM256 256h256v512h-256v-512z" />
<glyph unicode="&#xf4;" d="M0 1146v256h128v128h128v128h256v-128h128v-128h128v-256h-128v128h-128v128h-256v-128h-128v-128h-128zM0 128v768h128v128h512v-128h128v-768h-128v-128h-512v128h-128zM256 256h256v512h-256v-512z" />
<glyph unicode="&#xf5;" d="M-64 1146v256h128v128h384v-256h128v128h128v128h128v-256h-128v-128h-384v256h-128v-128h-128v-128h-128zM0 128v768h128v128h512v-128h128v-768h-128v-128h-512v128h-128zM256 256h256v512h-256v-512z" />
<glyph unicode="&#xf7;" horiz-adv-x="768" d="M0 512v128h640v-128h-640zM256 256v128h128v-128h-128zM256 768v128h128v-128h-128z" />
<glyph unicode="&#xf9;" d="M0 1402v128h256v-128h128v-128h128v-128h-256v128h-128v128h-128zM0 128v896h256v-768h256v768h256v-896h-128v-128h-512v128h-128z" />
<glyph unicode="&#xfb;" d="M0 1146v256h128v128h128v128h256v-128h128v-128h128v-256h-128v128h-128v128h-256v-128h-128v-128h-128zM0 128v896h256v-768h256v768h256v-896h-128v-128h-512v128h-128z" />
<glyph unicode="&#x152;" horiz-adv-x="1792" d="M896 0v1280h768v-256h-512v-256h512v-256h-512v-256h512v-256h-768zM0 128v1024h128v128h512v-128h128v-1024h-128v-128h-512v128h-128zM256 256h256v768h-256v-768z" />
<glyph unicode="&#x153;" horiz-adv-x="1792" d="M896 128v768h128v128h512v-128h128v-384h-128v-128h-384v-128h512v-256h-640v128h-128zM1152 640h256v128h-256v-128zM0 128v768h128v128h512v-128h128v-768h-128v-128h-512v128h-128zM256 256h256v512h-256v-512z" />
<glyph unicode="&#x2c6;" d="M0 768v256h128v128h128v128h256v-128h128v-128h128v-256h-128v128h-128v128h-256v-128h-128v-128h-128z" />
<glyph unicode="&#x2dc;" horiz-adv-x="384" d="M-448 122v256h128v128h384v-256h128v128h128v128h128v-256h-128v-128h-384v256h-128v-128h-128v-128h-128z" />
<glyph unicode="&#x2000;" horiz-adv-x="956" />
<glyph unicode="&#x2001;" horiz-adv-x="1914" />
<glyph unicode="&#x2002;" horiz-adv-x="956" />
<glyph unicode="&#x2003;" horiz-adv-x="1914" />
<glyph unicode="&#x2004;" horiz-adv-x="638" />
<glyph unicode="&#x2005;" horiz-adv-x="478" />
<glyph unicode="&#x2006;" horiz-adv-x="318" />
<glyph unicode="&#x2007;" horiz-adv-x="318" />
<glyph unicode="&#x2008;" horiz-adv-x="238" />
<glyph unicode="&#x2009;" horiz-adv-x="382" />
<glyph unicode="&#x200a;" horiz-adv-x="106" />
<glyph unicode="&#x2010;" d="M128 512v128h640v-128h-640z" />
<glyph unicode="&#x2011;" d="M128 512v128h640v-128h-640z" />
<glyph unicode="&#x2012;" d="M128 512v128h640v-128h-640z" />
<glyph unicode="&#x2013;" d="M128 512v128h640v-128h-640z" />
<glyph unicode="&#x2014;" horiz-adv-x="1024" d="M0 512v128h896v-128h-896z" />
<glyph unicode="&#x2018;" horiz-adv-x="384" d="M0 896v384h128v-128h128v-256h-256zM128 1280v128h128v-128h-128z" />
<glyph unicode="&#x2019;" horiz-adv-x="384" d="M0 896v128h128v-128h-128zM0 1152v256h256v-384h-128v128h-128z" />
<glyph unicode="&#x201a;" horiz-adv-x="384" d="M0 0v256h256v-384h-128v128h-128zM0 -128h128v-128h-128v128z" />
<glyph unicode="&#x201c;" horiz-adv-x="768" d="M0 896v384h128v-128h128v-256h-256zM128 1280v128h128v-128h-128zM384 896v384h128v-128h128v-256h-256zM512 1280v128h128v-128h-128z" />
<glyph unicode="&#x201d;" horiz-adv-x="768" d="M0 896v128h128v-128h-128zM0 1152v256h256v-384h-128v128h-128zM384 896v128h128v-128h-128zM384 1152v256h256v-384h-128v128h-128z" />
<glyph unicode="&#x201e;" horiz-adv-x="768" d="M0 0v256h256v-384h-128v128h-128zM0 -128h128v-128h-128v128zM384 0v256h256v-384h-128v128h-128zM384 -128h128v-128h-128v128z" />
<glyph unicode="&#x2022;" horiz-adv-x="640" d="M0 512v256h128v128h256v-128h128v-256h-128v-128h-256v128h-128z" />
<glyph unicode="&#x2026;" horiz-adv-x="1152" d="M0 0v256h256v-256h-256zM384 0v256h256v-256h-256zM768 0v256h256v-256h-256z" />
<glyph unicode="&#x202f;" horiz-adv-x="382" />
<glyph unicode="&#x2039;" horiz-adv-x="512" d="M0 512v128h128v-128h-128zM128 384v128h128v-128h-128zM128 640v128h128v-128h-128zM256 256v128h128v-128h-128zM256 768v128h128v-128h-128z" />
<glyph unicode="&#x203a;" horiz-adv-x="512" d="M0 256v128h128v-128h-128zM0 768v128h128v-128h-128zM128 384v128h128v-128h-128zM128 640v128h128v-128h-128zM256 512v128h128v-128h-128z" />
<glyph unicode="&#x205f;" horiz-adv-x="478" />
<glyph unicode="&#x20ac;" horiz-adv-x="1152" d="M-128 384v128h128v128h-128v128h128v256h128v128h128v128h640v-128h128v-128h-640v-128h-128v-128h640v-128h-640v-128h512v-128h-384v-128h640v-128h-128v-128h-640v128h-128v128h-128v128h-128z" />
<glyph unicode="&#x2122;" horiz-adv-x="2048" d="M896 0v1280h256v-128h128v-128h256v128h128v128h256v-1280h-256v768h-128v-128h-256v128h-128v-768h-256zM0 1024v256h768v-256h-256v-1024h-256v1024h-256z" />
<glyph unicode="&#xe000;" horiz-adv-x="1025" d="M0 1025h1025v-1025h-1025v1025z" />
<glyph unicode="&#xfb01;" horiz-adv-x="1024" d="M0 768v256h128v384h128v128h384v-256h-256v-256h512v-1024h-256v768h-256v-768h-256v768h-128z" />
<glyph unicode="&#xfb02;" horiz-adv-x="1152" d="M0 768v256h128v384h128v128h640v-1280h128v-256h-256v128h-128v1152h-256v-256h128v-256h-128v-768h-256v768h-128z" />
<glyph unicode="&#xfb03;" horiz-adv-x="2176" d="M1792 0v1024h256v-1024h-256zM1792 1152v128h256v-128h-256zM896 -256v1152h128v128h640v-256h-512v-256h384v-256h-384v-512h-256zM0 -256v1152h128v128h640v-256h-512v-256h384v-256h-384v-512h-256z" />
<glyph unicode="&#xfb04;" horiz-adv-x="2304" d="M1792 128v1152h256v-1024h128v-256h-256v128h-128zM896 -256v1152h128v128h640v-256h-512v-256h384v-256h-384v-512h-256zM0 -256v1152h128v128h640v-256h-512v-256h384v-256h-384v-512h-256z" />
</font>
</defs>
</svg>
